<svg xmlns="http://www.w3.org/2000/svg" width="1024" height="1024" viewBox="0 0 1024 1024">


<g fill="#34D399">
<path d="M 116.15 689.44 L 110.73 692.15 L 105.99 696.21 L 105.31 696.21 L 103.96 697.57 L 99.22 700.28 L 95.83 703.66 L 95.83 705.69 L 98.54 710.43 L 101.25 713.14 L 101.25 713.82 L 103.96 716.53 L 103.96 717.21 L 106.67 719.92 L 106.67 720.59 L 109.38 723.30 L 109.38 723.98 L 112.08 726.69 L 112.08 727.37 L 116.15 731.43 L 116.15 732.11 L 118.86 734.81 L 118.86 735.49 L 121.57 738.20 L 121.57 738.88 L 122.92 739.56 L 122.92 740.23 L 125.63 742.94 L 125.63 743.62 L 133.76 752.42 L 133.76 753.10 L 139.17 758.52 L 139.17 759.20 L 139.85 759.20 L 140.53 760.55 L 141.88 761.23 L 141.88 761.90 L 145.27 761.90 L 147.30 759.87 L 147.98 759.87 L 150.01 757.84 L 152.72 756.49 L 155.43 753.78 L 156.11 753.78 L 160.85 749.71 L 161.52 749.71 L 164.23 747.01 L 164.91 745.65 L 164.91 742.94 L 163.56 740.23 L 160.17 736.17 L 160.17 735.49 L 158.81 734.81 L 158.81 734.14 L 156.78 732.11 L 156.78 731.43 L 153.40 728.04 L 153.40 727.37 L 150.01 723.98 L 150.01 723.30 L 146.62 719.92 L 146.62 719.24 L 145.27 718.56 L 145.27 717.88 L 138.50 710.43 L 138.50 709.76 L 135.79 707.05 L 135.79 706.37 L 131.72 702.31 L 131.72 701.63 L 129.02 698.92 L 129.02 698.24 L 126.31 695.53 L 126.31 694.86 L 125.63 694.86 L 124.95 693.50 L 122.24 690.79 L 119.53 689.44 Z"/>
<path d="M 193.35 591.24 L 189.97 594.62 L 189.29 594.62 L 188.61 595.98 L 187.94 595.98 L 183.20 600.72 L 182.52 600.72 L 177.78 605.46 L 177.10 605.46 L 176.42 606.81 L 175.75 606.81 L 164.23 617.65 L 163.56 617.65 L 162.88 619.01 L 162.20 619.01 L 156.11 625.10 L 155.43 625.10 L 149.33 631.20 L 148.66 631.20 L 148.66 631.87 L 147.30 632.55 L 141.88 637.97 L 141.88 638.65 L 140.53 640.00 L 140.53 645.42 L 141.88 646.77 L 144.59 651.51 L 147.30 654.22 L 150.01 658.96 L 151.37 659.64 L 152.72 662.35 L 155.43 665.06 L 155.43 665.74 L 160.85 671.83 L 160.85 672.51 L 162.88 674.54 L 162.88 675.22 L 164.91 677.25 L 164.91 677.93 L 168.30 681.31 L 168.30 681.99 L 170.33 684.02 L 170.33 684.70 L 173.04 687.41 L 174.39 690.12 L 175.75 690.79 L 175.75 691.47 L 178.46 694.18 L 179.81 696.89 L 182.52 699.60 L 182.52 700.28 L 185.23 702.98 L 185.23 703.66 L 187.94 706.37 L 187.94 707.05 L 198.77 719.92 L 200.13 722.62 L 201.48 723.30 L 202.84 726.01 L 205.54 728.72 L 205.54 729.40 L 208.25 732.11 L 208.25 732.78 L 212.99 737.52 L 215.70 738.20 L 216.38 738.88 L 219.77 738.88 L 222.48 737.52 L 231.96 730.75 L 232.63 730.75 L 235.34 728.04 L 238.05 726.69 L 240.76 723.98 L 243.47 722.62 L 246.18 719.92 L 248.89 718.56 L 251.60 715.85 L 256.34 713.14 L 259.05 710.43 L 261.76 709.08 L 264.47 706.37 L 265.14 706.37 L 269.88 702.31 L 272.59 700.95 L 272.59 700.28 L 275.30 698.24 L 275.98 698.24 L 277.33 696.89 L 277.33 696.21 L 269.88 687.41 L 269.88 686.73 L 267.17 684.02 L 267.17 683.34 L 264.47 680.63 L 264.47 679.96 L 261.76 677.25 L 261.76 676.57 L 259.05 673.86 L 259.05 673.19 L 256.34 670.48 L 256.34 669.80 L 253.63 667.09 L 253.63 666.41 L 250.92 663.70 L 249.57 660.99 L 248.21 660.32 L 246.86 657.61 L 236.02 644.74 L 234.67 642.03 L 233.31 641.35 L 233.31 640.68 L 227.89 634.58 L 226.54 631.87 L 218.41 622.39 L 218.41 621.71 L 216.38 619.68 L 216.38 619.01 L 212.99 615.62 L 212.99 614.94 L 210.96 612.91 L 210.96 612.23 L 208.93 610.20 L 208.93 609.52 L 198.10 596.66 L 198.10 595.98 L 196.06 593.95 L 196.06 593.27 L 194.03 591.24 Z"/>
<path d="M 301.71 941.38 L 301.71 942.73 L 356.57 942.73 L 357.93 941.38 L 357.93 940.70 L 361.99 935.28 L 363.34 931.89 L 366.05 928.51 L 367.41 925.12 L 368.76 923.77 L 368.76 923.09 L 371.47 919.70 L 372.15 917.67 L 373.50 916.32 L 374.18 914.29 L 376.89 910.90 L 378.24 907.51 L 382.31 902.10 L 382.31 900.74 L 386.37 895.32 L 387.72 891.94 L 391.79 886.52 L 391.79 885.16 L 395.85 879.75 L 397.21 876.36 L 399.92 872.97 L 401.27 869.59 L 403.98 866.20 L 405.33 862.81 L 410.75 855.37 L 410.75 854.01 L 412.11 852.66 L 414.81 847.24 L 418.88 841.82 L 420.23 838.43 L 422.94 835.05 L 424.30 831.66 L 427.01 828.28 L 428.36 824.89 L 432.42 819.47 L 433.78 816.08 L 436.49 812.70 L 437.84 809.31 L 440.55 805.93 L 441.90 802.54 L 445.97 797.12 L 445.97 795.77 L 448.68 792.38 L 450.03 788.99 L 451.39 788.32 L 453.42 789.67 L 454.77 792.38 L 457.48 795.09 L 457.48 795.77 L 459.51 797.80 L 459.51 798.48 L 461.54 800.51 L 461.54 801.19 L 462.90 801.86 L 464.25 804.57 L 466.96 807.28 L 466.96 807.96 L 468.99 809.99 L 468.99 810.67 L 471.03 812.70 L 471.03 813.38 L 472.38 814.05 L 475.09 818.79 L 476.44 819.47 L 477.80 822.18 L 483.22 828.28 L 484.57 830.98 L 489.99 837.08 L 491.34 839.79 L 499.47 849.27 L 502.18 854.01 L 503.53 854.69 L 504.89 857.40 L 507.60 860.11 L 507.60 860.78 L 509.63 862.81 L 509.63 863.49 L 511.66 865.52 L 511.66 866.20 L 519.79 875.68 L 521.14 878.39 L 526.56 884.49 L 527.92 887.20 L 533.33 893.29 L 534.69 896.00 L 536.04 896.68 L 537.40 899.39 L 540.11 902.10 L 540.11 902.77 L 542.14 904.80 L 542.14 905.48 L 544.17 907.51 L 544.17 908.19 L 546.88 910.90 L 548.23 913.61 L 549.59 914.29 L 550.94 916.99 L 553.65 919.70 L 555.01 922.41 L 560.42 928.51 L 560.42 929.19 L 564.49 933.93 L 565.84 936.63 L 567.20 937.31 L 569.90 942.05 L 571.26 942.73 L 632.89 942.73 L 632.89 941.38 L 631.53 940.70 L 631.53 940.02 L 620.70 927.15 L 620.70 926.48 L 618.67 924.44 L 618.67 923.77 L 616.63 921.74 L 616.63 921.06 L 611.22 914.96 L 611.22 914.29 L 609.19 912.25 L 609.19 911.58 L 607.15 909.54 L 607.15 908.87 L 604.44 906.16 L 603.09 903.45 L 600.38 900.74 L 600.38 900.06 L 597.67 897.35 L 597.67 896.68 L 595.64 894.65 L 595.64 893.97 L 593.61 891.94 L 593.61 891.26 L 591.58 889.23 L 591.58 888.55 L 589.54 886.52 L 589.54 885.84 L 584.13 879.75 L 582.77 877.04 L 580.06 874.33 L 578.71 871.62 L 576.00 868.91 L 574.65 866.20 L 571.94 863.49 L 571.94 862.81 L 569.90 860.78 L 569.90 860.11 L 567.87 858.07 L 567.87 857.40 L 565.84 855.37 L 565.84 854.69 L 563.81 852.66 L 563.81 851.98 L 555.68 842.50 L 554.33 839.79 L 551.62 837.08 L 551.62 836.40 L 548.91 833.69 L 547.56 830.98 L 539.43 821.50 L 539.43 820.83 L 537.40 818.79 L 537.40 818.12 L 535.37 816.08 L 535.37 815.41 L 533.33 813.38 L 533.33 812.70 L 531.30 810.67 L 531.30 809.99 L 523.17 800.51 L 521.82 797.80 L 520.47 797.12 L 519.11 794.41 L 516.40 791.70 L 516.40 791.03 L 512.34 786.29 L 510.98 783.58 L 505.57 777.48 L 504.21 774.77 L 498.79 768.68 L 498.79 768.00 L 496.76 765.97 L 496.76 765.29 L 494.73 763.26 L 494.73 762.58 L 492.02 759.87 L 490.67 757.16 L 489.31 756.49 L 486.60 751.75 L 485.25 751.07 L 485.25 750.39 L 481.19 745.65 L 479.83 742.94 L 477.12 740.23 L 477.12 739.56 L 475.09 737.52 L 475.09 736.85 L 473.06 734.81 L 473.06 734.14 L 470.35 731.43 L 468.99 728.72 L 466.29 726.01 L 464.93 723.30 L 459.51 717.21 L 459.51 716.53 L 457.48 714.50 L 457.48 713.82 L 455.45 711.79 L 455.45 711.11 L 452.74 708.40 L 451.39 705.69 L 445.97 699.60 L 444.61 696.89 L 441.90 694.18 L 440.55 691.47 L 438.52 689.44 L 437.16 689.44 L 435.81 690.79 L 435.13 690.79 L 432.42 693.50 L 427.68 696.21 L 424.97 698.92 L 424.30 698.92 L 422.94 700.28 L 420.23 701.63 L 417.52 704.34 L 412.78 707.05 L 412.11 708.40 L 409.40 709.76 L 406.69 712.47 L 401.95 715.17 L 397.21 719.24 L 397.21 719.92 L 399.24 721.95 L 399.24 722.62 L 401.27 724.66 L 401.27 725.33 L 403.30 727.37 L 403.30 728.04 L 414.14 740.91 L 414.14 741.59 L 416.17 743.62 L 416.17 744.30 L 418.20 746.33 L 418.20 747.01 L 419.56 747.68 L 419.56 749.04 L 418.20 750.39 L 415.49 755.81 L 411.43 761.23 L 411.43 762.58 L 407.37 768.00 L 404.66 773.42 L 400.59 778.84 L 400.59 780.19 L 396.53 785.61 L 395.17 788.99 L 392.47 792.38 L 391.11 795.77 L 388.40 799.15 L 387.05 802.54 L 382.98 807.96 L 382.98 809.31 L 378.92 814.73 L 377.57 818.12 L 373.50 823.53 L 372.15 826.92 L 369.44 830.31 L 368.08 833.69 L 364.02 839.11 L 364.02 840.47 L 362.67 841.82 L 362.67 842.50 L 358.60 847.92 L 357.25 851.30 L 353.19 856.72 L 351.83 860.11 L 350.48 861.46 L 347.77 866.88 L 345.06 870.26 L 345.06 871.62 L 339.64 879.07 L 338.29 882.46 L 335.58 885.84 L 334.22 889.23 L 332.87 890.58 L 330.84 894.65 L 329.48 896.00 L 328.80 898.03 L 324.74 903.45 L 323.39 906.84 L 320.68 910.22 L 320.68 911.58 L 316.61 916.99 L 315.26 920.38 L 312.55 923.77 L 311.20 927.15 L 309.84 928.51 L 309.84 929.19 L 307.13 932.57 L 306.46 934.60 L 305.10 935.96 L 304.42 937.99 Z"/>
<path d="M 314.58 428.70 L 307.81 434.79 L 307.13 434.79 L 303.07 438.86 L 302.39 438.86 L 298.33 442.92 L 297.65 442.92 L 296.97 444.28 L 296.30 444.28 L 293.59 446.98 L 292.91 446.98 L 290.20 449.69 L 289.52 449.69 L 288.85 451.05 L 288.17 451.05 L 285.46 453.76 L 284.78 453.76 L 282.07 456.47 L 281.40 456.47 L 277.33 460.53 L 276.66 460.53 L 273.95 463.24 L 273.27 463.24 L 270.56 465.95 L 269.88 465.95 L 267.17 468.66 L 266.50 468.66 L 265.82 470.01 L 265.14 470.01 L 262.43 472.72 L 261.76 472.72 L 259.05 475.43 L 258.37 475.43 L 255.66 478.14 L 254.98 478.14 L 252.28 480.85 L 251.60 480.85 L 248.21 484.23 L 247.53 484.23 L 245.50 486.26 L 244.83 486.26 L 244.15 487.62 L 243.47 487.62 L 240.76 490.33 L 240.08 490.33 L 237.38 493.04 L 236.70 493.04 L 233.99 495.75 L 233.31 495.75 L 230.60 498.46 L 229.93 498.46 L 227.22 501.16 L 226.54 501.16 L 223.83 503.87 L 223.15 503.87 L 222.48 505.23 L 219.77 506.58 L 215.70 510.65 L 215.03 510.65 L 212.32 513.35 L 211.64 513.35 L 208.93 516.06 L 208.25 516.06 L 204.19 520.13 L 203.51 520.13 L 200.80 522.84 L 200.13 522.84 L 197.42 525.54 L 196.74 525.54 L 194.03 528.25 L 193.35 528.25 L 189.29 532.32 L 193.35 537.06 L 193.35 537.74 L 196.06 540.44 L 196.06 541.12 L 197.42 541.80 L 197.42 542.48 L 200.13 545.19 L 200.13 545.86 L 202.84 548.57 L 202.84 549.25 L 205.54 551.96 L 205.54 552.63 L 208.25 555.34 L 208.25 556.02 L 209.61 556.70 L 209.61 557.38 L 212.32 560.08 L 212.32 560.76 L 215.03 563.47 L 215.03 564.15 L 217.74 566.86 L 217.74 567.53 L 220.44 570.24 L 220.44 570.92 L 223.15 573.63 L 223.15 574.31 L 225.86 577.02 L 225.86 577.69 L 228.57 580.40 L 228.57 581.08 L 231.28 583.79 L 231.28 584.47 L 235.34 588.53 L 236.70 591.24 L 238.05 591.92 L 238.05 592.59 L 240.76 595.30 L 242.12 598.01 L 243.47 598.69 L 243.47 599.37 L 246.18 602.07 L 246.18 602.75 L 248.89 605.46 L 248.89 606.14 L 251.60 608.85 L 251.60 609.52 L 254.31 612.23 L 254.31 612.91 L 257.02 615.62 L 257.02 616.30 L 259.72 619.01 L 259.72 619.68 L 262.43 622.39 L 262.43 623.07 L 265.14 625.78 L 265.14 626.46 L 267.85 629.16 L 267.85 629.84 L 270.56 632.55 L 270.56 633.23 L 273.27 635.94 L 273.27 636.61 L 275.98 639.32 L 275.98 640.00 L 278.69 642.71 L 278.69 643.39 L 281.40 646.10 L 281.40 646.77 L 284.11 649.48 L 284.11 650.16 L 286.81 652.87 L 286.81 653.54 L 289.52 656.25 L 289.52 656.93 L 292.23 659.64 L 292.23 660.32 L 303.07 673.19 L 303.07 673.86 L 305.10 675.89 L 305.10 676.57 L 307.13 678.60 L 307.13 679.28 L 308.49 679.96 L 308.49 680.63 L 313.90 686.73 L 313.90 687.41 L 315.94 689.44 L 315.94 690.12 L 317.97 692.15 L 317.97 692.83 L 321.35 696.21 L 321.35 696.89 L 323.39 698.92 L 323.39 699.60 L 324.74 700.28 L 324.74 700.95 L 331.51 708.40 L 331.51 709.08 L 332.19 709.08 L 332.87 710.43 L 333.54 710.43 L 334.22 711.79 L 335.58 713.14 L 336.25 713.14 L 336.93 714.50 L 338.29 715.17 L 345.06 710.43 L 345.74 710.43 L 350.48 706.37 L 353.19 705.02 L 355.89 702.31 L 360.63 699.60 L 363.34 696.89 L 368.08 694.18 L 370.79 691.47 L 375.53 688.76 L 378.24 686.05 L 380.95 684.70 L 383.66 681.99 L 386.37 680.63 L 388.40 678.60 L 389.08 678.60 L 391.11 676.57 L 391.79 676.57 L 393.82 674.54 L 394.50 674.54 L 396.53 672.51 L 397.21 672.51 L 399.92 669.80 L 400.59 669.80 L 407.37 664.38 L 410.07 663.03 L 412.78 660.32 L 417.52 657.61 L 418.20 656.25 L 422.94 653.54 L 423.62 652.19 L 428.36 649.48 L 429.04 648.13 L 433.78 645.42 L 434.46 644.06 L 437.16 642.71 L 439.87 640.00 L 440.55 640.00 L 445.29 635.94 L 448.00 634.58 L 449.35 633.23 L 449.35 632.55 L 448.68 632.55 L 445.97 629.84 L 443.26 628.49 L 440.55 625.78 L 439.87 625.78 L 437.16 623.07 L 436.49 623.07 L 432.42 619.01 L 431.75 619.01 L 427.68 614.94 L 427.01 614.94 L 421.59 609.52 L 420.91 609.52 L 420.23 608.17 L 419.56 608.17 L 398.56 587.17 L 398.56 586.50 L 397.88 586.50 L 397.21 585.14 L 395.85 584.47 L 395.85 583.79 L 391.79 579.72 L 391.79 579.05 L 387.72 574.98 L 387.72 574.31 L 386.37 573.63 L 386.37 572.95 L 378.24 563.47 L 378.24 562.79 L 374.18 558.05 L 374.18 557.38 L 372.83 556.02 L 370.12 551.28 L 366.05 546.54 L 365.38 544.51 L 364.02 543.15 L 361.99 539.09 L 356.57 531.64 L 355.22 528.25 L 353.86 526.90 L 351.15 521.48 L 349.80 520.13 L 349.80 518.77 L 348.44 517.42 L 347.09 514.03 L 345.74 512.68 L 345.74 511.32 L 344.38 509.97 L 344.38 508.61 L 343.03 507.26 L 343.03 505.90 L 341.67 504.55 L 341.67 503.20 L 340.32 501.84 L 340.32 500.49 L 337.61 495.75 L 337.61 494.39 L 336.25 493.04 L 336.25 491.68 L 334.90 489.65 L 334.90 488.30 L 333.54 486.94 L 333.54 485.59 L 332.19 483.56 L 332.19 482.20 L 330.84 480.17 L 330.84 478.81 L 328.13 473.40 L 328.13 471.37 L 325.42 465.95 L 325.42 463.92 L 324.06 461.88 L 324.06 459.85 L 322.71 457.82 L 322.71 455.79 L 321.35 453.76 L 321.35 451.05 L 320.00 449.02 L 320.00 446.31 L 318.65 444.28 L 318.65 441.57 L 317.29 438.86 L 317.29 436.15 L 315.94 433.44 L 315.94 430.73 Z"/>
<path fill-rule="evenodd" d="M 599.03 82.62 L 598.35 83.30 L 595.64 83.30 L 594.96 83.98 L 589.54 83.98 L 588.87 84.66 L 586.84 84.66 L 586.16 85.33 L 582.10 85.33 L 579.39 86.69 L 575.32 86.69 L 572.61 88.04 L 569.23 88.04 L 566.52 89.40 L 563.81 89.40 L 561.78 90.75 L 559.07 90.75 L 556.36 92.11 L 554.33 92.11 L 552.30 93.46 L 549.59 93.46 L 547.56 94.81 L 545.52 94.81 L 543.49 96.17 L 541.46 96.17 L 539.43 97.52 L 538.07 97.52 L 532.66 100.23 L 530.62 100.23 L 529.27 101.59 L 527.24 101.59 L 525.88 102.94 L 524.53 102.94 L 522.50 104.30 L 521.14 104.30 L 519.79 105.65 L 518.43 105.65 L 513.69 108.36 L 512.34 108.36 L 510.98 109.71 L 509.63 109.71 L 508.28 111.07 L 506.92 111.07 L 505.57 112.42 L 499.47 115.13 L 498.12 116.49 L 496.76 116.49 L 493.38 119.20 L 492.02 119.20 L 486.60 123.26 L 484.57 123.94 L 481.19 126.65 L 479.15 127.32 L 477.80 128.68 L 475.09 130.03 L 470.35 134.10 L 465.61 136.80 L 452.74 147.64 L 452.06 147.64 L 451.39 148.99 L 450.71 148.99 L 437.84 161.19 L 437.16 161.19 L 436.49 162.54 L 435.81 162.54 L 435.81 163.22 L 424.97 174.05 L 424.97 174.73 L 420.91 178.79 L 420.91 179.47 L 418.20 182.18 L 418.20 182.86 L 414.14 186.92 L 412.78 189.63 L 410.07 192.34 L 410.07 193.02 L 406.01 197.76 L 404.66 200.47 L 401.95 203.17 L 401.95 203.85 L 396.53 211.30 L 393.82 216.72 L 391.11 220.11 L 389.76 223.49 L 388.40 224.85 L 387.05 228.23 L 385.69 229.59 L 382.98 235.68 L 381.63 237.04 L 381.63 238.39 L 380.28 239.75 L 380.28 241.10 L 377.57 245.84 L 377.57 247.20 L 376.21 248.55 L 376.21 249.90 L 374.86 251.94 L 374.86 253.29 L 373.50 254.65 L 373.50 256.68 L 372.15 258.71 L 372.15 260.06 L 369.44 265.48 L 369.44 267.51 L 366.73 272.93 L 366.73 274.96 L 365.38 277.67 L 365.38 279.70 L 364.02 281.74 L 364.02 283.77 L 363.34 284.44 L 362.67 288.51 L 361.31 291.22 L 361.31 293.93 L 359.96 296.63 L 359.96 299.34 L 358.60 302.05 L 358.60 305.44 L 357.93 306.12 L 357.93 308.15 L 357.25 308.83 L 357.25 312.89 L 355.89 315.60 L 355.89 320.34 L 355.22 321.02 L 355.22 323.72 L 354.54 324.40 L 354.54 329.82 L 353.86 330.50 L 353.86 333.88 L 353.19 334.56 L 353.19 343.37 L 433.78 343.37 L 434.46 344.04 L 434.46 381.29 L 433.10 382.65 L 353.19 382.65 L 352.51 384.00 L 353.19 384.68 L 353.19 392.80 L 353.86 393.48 L 353.86 396.87 L 354.54 397.54 L 354.54 403.64 L 355.22 404.32 L 355.22 406.35 L 355.89 407.03 L 355.89 411.09 L 356.57 411.77 L 356.57 413.80 L 357.25 414.48 L 357.25 418.54 L 358.60 421.25 L 358.60 424.63 L 359.96 427.34 L 359.96 430.73 L 361.31 433.44 L 361.31 435.47 L 362.67 438.18 L 362.67 440.21 L 364.02 442.92 L 364.02 444.95 L 365.38 446.98 L 365.38 449.02 L 366.05 449.69 L 366.73 453.08 L 368.08 455.11 L 368.08 457.14 L 369.44 459.17 L 369.44 460.53 L 372.15 465.95 L 372.15 467.98 L 374.86 472.72 L 374.86 474.07 L 376.21 476.11 L 376.21 477.46 L 377.57 478.81 L 377.57 480.17 L 385.69 496.42 L 387.05 497.78 L 388.40 501.16 L 389.76 502.52 L 389.76 503.87 L 392.47 507.26 L 393.82 510.65 L 399.24 518.10 L 399.92 520.13 L 401.95 522.16 L 403.30 524.87 L 407.37 529.61 L 408.72 532.32 L 415.49 539.77 L 415.49 540.44 L 422.26 547.89 L 422.26 548.57 L 427.68 553.99 L 427.68 554.67 L 428.36 554.67 L 429.04 556.02 L 429.71 556.02 L 430.39 557.38 L 439.87 566.86 L 440.55 566.86 L 441.23 568.21 L 442.58 568.89 L 442.58 569.57 L 443.26 569.57 L 454.77 580.40 L 455.45 580.40 L 468.32 591.24 L 468.99 591.24 L 470.35 592.59 L 475.09 595.30 L 477.12 597.33 L 477.80 597.33 L 481.19 600.04 L 483.22 600.72 L 492.70 607.49 L 494.05 607.49 L 495.41 608.85 L 500.83 611.56 L 502.18 612.91 L 503.53 612.91 L 504.89 614.26 L 518.43 621.04 L 519.79 621.04 L 527.24 625.10 L 528.59 625.10 L 530.62 626.46 L 531.98 626.46 L 534.01 627.81 L 535.37 627.81 L 540.78 630.52 L 542.81 630.52 L 544.85 631.87 L 546.20 631.87 L 546.88 632.55 L 548.23 632.55 L 548.91 633.23 L 550.26 633.23 L 552.97 634.58 L 555.01 634.58 L 557.04 635.94 L 559.75 635.94 L 561.78 637.29 L 564.49 637.29 L 567.20 638.65 L 569.23 638.65 L 571.94 640.00 L 575.32 640.00 L 578.03 641.35 L 582.10 641.35 L 584.80 642.71 L 588.19 642.71 L 588.87 643.39 L 590.90 643.39 L 591.58 644.06 L 596.99 644.06 L 597.67 644.74 L 600.38 644.74 L 601.06 645.42 L 607.83 645.42 L 608.51 646.10 L 611.89 646.10 L 612.57 646.77 L 619.34 646.77 L 619.34 562.79 L 620.70 561.44 L 659.30 561.44 L 660.66 562.79 L 660.66 646.77 L 668.78 646.77 L 669.46 646.10 L 672.85 646.10 L 673.52 645.42 L 680.30 645.42 L 680.97 644.74 L 683.01 644.74 L 683.68 644.06 L 689.10 644.06 L 689.78 643.39 L 691.81 643.39 L 692.49 642.71 L 696.55 642.71 L 699.26 641.35 L 702.65 641.35 L 705.35 640.00 L 708.74 640.00 L 711.45 638.65 L 714.16 638.65 L 716.19 637.29 L 718.90 637.29 L 720.93 635.94 L 723.64 635.94 L 725.67 634.58 L 727.70 634.58 L 728.38 633.90 L 729.74 633.90 L 730.41 633.23 L 735.83 631.87 L 737.86 630.52 L 739.89 630.52 L 741.93 629.16 L 743.28 629.16 L 745.31 627.81 L 746.67 627.81 L 748.70 626.46 L 750.05 626.46 L 752.08 625.10 L 753.44 625.10 L 755.47 623.75 L 756.83 623.75 L 758.18 622.39 L 759.53 622.39 L 761.57 621.04 L 762.92 621.04 L 764.28 619.68 L 765.63 619.68 L 766.98 618.33 L 768.34 618.33 L 769.69 616.97 L 771.05 616.97 L 772.40 615.62 L 773.76 615.62 L 775.11 614.26 L 776.47 614.26 L 777.82 612.91 L 781.21 611.56 L 782.56 610.20 L 783.92 610.20 L 787.30 607.49 L 788.66 607.49 L 790.01 606.14 L 795.43 603.43 L 796.78 602.07 L 797.46 602.07 L 798.81 600.72 L 803.56 598.01 L 805.59 595.98 L 808.30 594.62 L 810.33 592.59 L 813.04 591.24 L 815.75 588.53 L 818.46 587.17 L 821.16 584.47 L 821.84 584.47 L 824.55 581.76 L 825.23 581.76 L 829.97 577.02 L 830.65 577.02 L 835.39 572.28 L 836.06 572.28 L 836.06 571.60 L 837.42 570.92 L 855.03 553.31 L 855.70 551.96 L 856.38 551.96 L 856.38 551.28 L 860.44 547.22 L 860.44 546.54 L 863.15 543.83 L 863.15 543.15 L 864.51 542.48 L 864.51 541.80 L 866.54 539.77 L 866.54 539.09 L 869.93 535.70 L 869.93 535.03 L 873.99 530.29 L 875.34 527.58 L 877.38 525.54 L 878.73 522.84 L 880.76 520.80 L 880.76 520.13 L 884.83 514.71 L 886.18 511.32 L 888.89 507.94 L 890.24 504.55 L 892.95 501.16 L 892.95 499.81 L 894.31 498.46 L 895.66 495.07 L 897.02 493.71 L 897.02 492.36 L 898.37 491.01 L 898.37 489.65 L 899.72 488.30 L 899.72 486.94 L 901.08 485.59 L 901.08 484.23 L 902.43 482.88 L 902.43 481.52 L 903.79 479.49 L 903.79 478.14 L 905.14 476.78 L 905.14 475.43 L 906.50 473.40 L 906.50 472.04 L 907.85 470.01 L 907.85 468.66 L 909.21 466.62 L 909.21 465.27 L 910.56 463.24 L 910.56 461.88 L 913.27 456.47 L 913.27 454.43 L 914.62 452.40 L 914.62 450.37 L 915.98 448.34 L 915.98 445.63 L 917.33 443.60 L 917.33 441.57 L 918.69 438.86 L 918.69 436.15 L 920.04 434.12 L 920.04 431.41 L 921.40 428.70 L 921.40 425.31 L 922.75 422.60 L 922.75 418.54 L 923.43 417.86 L 923.43 415.83 L 924.11 415.15 L 924.11 410.41 L 924.78 409.74 L 924.78 407.70 L 925.46 407.03 L 925.46 401.61 L 926.14 400.93 L 926.14 397.54 L 926.81 396.87 L 926.81 388.74 L 927.49 388.06 L 927.49 381.97 L 845.54 381.97 L 844.19 380.61 L 844.87 379.94 L 844.87 344.04 L 845.54 343.37 L 846.90 343.37 L 847.58 344.04 L 899.05 344.04 L 899.72 343.37 L 903.79 343.37 L 904.47 344.04 L 905.82 343.37 L 907.85 343.37 L 908.53 344.04 L 909.21 343.37 L 911.92 343.37 L 912.59 344.04 L 926.14 344.04 L 926.81 343.37 L 928.17 343.37 L 928.17 341.33 L 927.49 340.66 L 927.49 336.59 L 926.81 335.92 L 926.81 330.50 L 926.14 329.82 L 926.14 327.11 L 925.46 326.43 L 925.46 321.69 L 924.78 321.02 L 924.78 318.98 L 924.11 318.31 L 924.11 314.24 L 923.43 313.57 L 923.43 311.53 L 922.75 310.86 L 922.75 307.47 L 922.07 306.79 L 922.07 305.44 L 921.40 304.76 L 921.40 302.05 L 920.04 299.34 L 920.04 295.96 L 918.69 293.25 L 918.69 290.54 L 917.33 288.51 L 917.33 285.80 L 915.98 283.77 L 915.98 281.74 L 914.62 279.70 L 914.62 277.67 L 913.27 275.64 L 913.27 273.61 L 911.92 271.58 L 911.92 269.54 L 910.56 267.51 L 910.56 265.48 L 909.21 264.13 L 909.21 262.10 L 907.85 260.06 L 907.85 258.71 L 906.50 256.68 L 906.50 255.32 L 905.14 253.29 L 905.14 251.94 L 903.79 250.58 L 903.79 249.23 L 902.43 247.20 L 902.43 245.84 L 901.08 244.49 L 901.08 243.13 L 898.37 238.39 L 898.37 237.04 L 897.02 235.68 L 894.31 229.59 L 892.95 228.23 L 892.95 226.88 L 890.24 223.49 L 890.24 222.14 L 887.53 218.75 L 886.18 215.37 L 884.83 214.01 L 884.83 213.33 L 883.47 211.98 L 883.47 211.30 L 882.12 209.95 L 882.12 209.27 L 880.76 207.92 L 878.05 203.17 L 873.99 198.43 L 872.63 195.72 L 869.93 193.02 L 868.57 190.31 L 860.44 180.83 L 860.44 180.15 L 859.09 179.47 L 859.09 178.79 L 853.67 173.38 L 853.67 172.70 L 848.25 167.28 L 848.25 166.60 L 847.58 166.60 L 846.90 165.25 L 846.22 165.25 L 845.54 163.89 L 844.87 163.89 L 844.19 162.54 L 842.84 161.86 L 842.84 161.19 L 842.16 161.19 L 834.71 153.74 L 834.03 153.74 L 829.29 148.99 L 828.61 148.99 L 827.94 147.64 L 827.26 147.64 L 814.39 136.80 L 813.71 136.80 L 812.36 135.45 L 807.62 132.74 L 805.59 130.71 L 804.91 130.71 L 801.52 128.00 L 799.49 127.32 L 794.07 123.26 L 792.04 122.58 L 787.30 119.20 L 783.92 117.84 L 782.56 116.49 L 779.17 115.13 L 777.82 113.78 L 776.47 113.78 L 775.11 112.42 L 773.76 112.42 L 772.40 111.07 L 766.98 108.36 L 765.63 108.36 L 764.28 107.01 L 762.92 107.01 L 761.57 105.65 L 760.21 105.65 L 758.18 104.30 L 756.83 104.30 L 755.47 102.94 L 754.12 102.94 L 752.08 101.59 L 750.73 101.59 L 745.31 98.88 L 743.28 98.88 L 737.86 96.17 L 735.83 96.17 L 733.80 94.81 L 731.77 94.81 L 729.74 93.46 L 727.70 93.46 L 725.67 92.11 L 722.96 92.11 L 720.93 90.75 L 718.22 90.75 L 715.51 89.40 L 712.80 89.40 L 710.10 88.04 L 706.71 88.04 L 704.00 86.69 L 700.61 86.69 L 699.94 86.01 L 697.90 86.01 L 697.23 85.33 L 692.49 85.33 L 691.81 84.66 L 689.78 84.66 L 689.10 83.98 L 683.68 83.98 L 683.01 83.30 L 679.62 83.30 L 678.94 82.62 L 670.81 82.62 L 670.14 81.95 L 666.07 81.95 L 665.40 81.27 L 660.66 81.27 L 659.98 81.95 L 659.98 159.15 L 658.62 160.51 L 657.27 160.51 L 656.59 159.83 L 655.92 160.51 L 628.83 160.51 L 628.15 159.83 L 627.47 160.51 L 624.08 160.51 L 623.41 159.83 L 620.70 160.51 L 619.34 159.15 L 619.34 81.27 L 612.57 81.27 L 611.89 81.95 L 607.83 81.95 L 607.15 82.62 Z M 628.15 187.60 L 630.86 187.60 L 632.89 186.24 L 647.79 186.24 L 650.50 187.60 L 653.21 187.60 L 655.24 188.95 L 656.59 188.95 L 662.01 191.66 L 663.37 193.02 L 666.07 194.37 L 668.78 197.08 L 669.46 197.08 L 670.14 198.43 L 671.49 199.11 L 671.49 199.79 L 674.20 202.50 L 674.20 203.17 L 676.91 206.56 L 679.62 211.98 L 679.62 214.01 L 680.97 216.04 L 680.97 218.75 L 681.65 219.43 L 681.65 222.14 L 682.33 222.81 L 682.33 231.62 L 681.65 232.30 L 680.97 238.39 L 680.30 239.07 L 679.62 242.46 L 678.26 243.81 L 678.26 245.84 L 676.91 247.20 L 676.91 248.55 L 675.56 249.90 L 672.85 254.65 L 670.14 257.35 L 670.14 259.39 L 674.20 263.45 L 674.20 264.13 L 676.91 266.84 L 676.91 267.51 L 678.26 268.19 L 678.26 268.87 L 680.97 271.58 L 680.97 272.25 L 683.68 274.96 L 683.68 275.64 L 685.04 276.32 L 685.04 276.99 L 688.42 280.38 L 688.42 281.06 L 691.81 284.44 L 691.81 285.12 L 704.00 298.67 L 704.00 299.34 L 706.71 302.05 L 706.71 302.73 L 708.06 303.41 L 708.06 304.08 L 718.90 316.28 L 718.90 316.95 L 721.61 319.66 L 721.61 320.34 L 722.96 321.02 L 722.96 321.69 L 725.67 325.08 L 727.03 324.40 L 729.06 324.40 L 729.74 323.72 L 731.77 323.72 L 732.44 323.05 L 748.02 323.05 L 748.70 323.72 L 750.73 323.72 L 751.41 324.40 L 756.83 325.76 L 762.24 328.47 L 766.31 331.85 L 766.98 331.85 L 775.79 340.66 L 775.79 341.33 L 778.50 344.72 L 778.50 346.07 L 779.85 347.43 L 779.85 348.78 L 781.21 350.14 L 781.21 351.49 L 782.56 354.20 L 783.24 360.30 L 783.92 360.97 L 783.92 368.42 L 783.24 369.10 L 783.24 371.81 L 782.56 372.49 L 782.56 375.87 L 781.21 377.90 L 781.21 379.26 L 779.85 381.29 L 779.85 382.65 L 778.50 385.35 L 777.14 386.71 L 775.79 389.42 L 773.76 391.45 L 773.76 392.13 L 768.34 397.54 L 767.66 397.54 L 765.63 399.58 L 764.95 399.58 L 761.57 402.29 L 758.86 403.64 L 757.50 403.64 L 756.15 404.99 L 754.12 404.99 L 751.41 406.35 L 751.41 454.43 L 752.76 455.79 L 754.12 455.79 L 758.86 458.50 L 766.31 465.95 L 766.31 466.62 L 768.34 468.66 L 770.37 472.72 L 770.37 474.07 L 771.72 476.11 L 771.72 490.33 L 770.37 492.36 L 770.37 494.39 L 769.02 495.75 L 769.02 497.10 L 767.66 498.46 L 766.31 501.16 L 760.89 506.58 L 760.21 506.58 L 756.83 509.29 L 755.47 509.29 L 754.12 510.65 L 752.08 510.65 L 750.05 512.00 L 744.63 512.00 L 743.96 512.68 L 742.60 512.00 L 736.51 512.00 L 735.83 511.32 L 732.44 510.65 L 724.99 506.58 L 718.90 500.49 L 718.22 498.46 L 715.51 495.07 L 715.51 493.71 L 714.16 491.68 L 714.16 488.30 L 713.48 487.62 L 713.48 484.23 L 712.80 483.56 L 712.80 482.20 L 713.48 481.52 L 713.48 477.46 L 714.16 476.78 L 714.16 474.07 L 715.51 472.04 L 715.51 470.69 L 721.61 462.56 L 722.29 462.56 L 727.70 457.82 L 729.74 457.14 L 731.09 455.79 L 732.44 455.79 L 734.48 453.76 L 733.80 453.08 L 733.80 409.06 L 734.48 408.38 L 733.12 406.35 L 729.06 406.35 L 727.03 404.99 L 724.99 404.99 L 723.64 403.64 L 721.61 403.64 L 675.56 449.69 L 674.88 449.69 L 674.20 451.72 L 678.26 456.47 L 680.97 461.88 L 680.97 463.24 L 682.33 465.27 L 682.33 467.98 L 683.68 470.69 L 683.68 486.26 L 683.01 486.94 L 683.01 488.97 L 682.33 489.65 L 682.33 491.68 L 681.65 492.36 L 680.97 495.75 L 678.26 501.16 L 674.88 505.23 L 674.88 505.90 L 665.40 514.71 L 660.66 517.42 L 659.30 517.42 L 657.95 518.77 L 656.59 518.77 L 653.88 520.13 L 651.85 520.13 L 651.17 520.80 L 649.14 520.80 L 648.47 521.48 L 634.92 521.48 L 634.24 520.80 L 629.50 520.13 L 627.47 518.77 L 626.12 518.77 L 624.08 517.42 L 622.73 517.42 L 621.38 516.06 L 619.34 515.39 L 615.28 512.00 L 614.60 512.00 L 607.15 504.55 L 607.15 503.87 L 603.09 498.46 L 603.09 497.10 L 601.74 495.75 L 601.74 494.39 L 600.38 492.36 L 600.38 491.01 L 599.03 488.30 L 599.03 483.56 L 598.35 482.88 L 599.03 472.04 L 600.38 469.33 L 601.06 465.27 L 603.09 461.88 L 603.09 460.53 L 604.44 459.17 L 607.15 454.43 L 609.86 451.72 L 609.86 451.05 L 611.22 450.37 L 611.22 449.69 L 612.57 449.02 L 613.25 447.66 L 613.93 447.66 L 616.63 444.95 L 617.31 444.95 L 620.70 442.24 L 626.12 439.53 L 627.47 439.53 L 629.50 438.18 L 632.21 438.18 L 632.89 437.50 L 634.92 437.50 L 635.60 436.83 L 649.82 436.83 L 650.50 437.50 L 651.85 437.50 L 652.53 438.18 L 655.24 438.18 L 655.92 438.86 L 657.95 438.18 L 659.30 436.83 L 659.30 436.15 L 672.17 423.28 L 672.17 422.60 L 673.52 421.93 L 673.52 421.25 L 674.88 420.57 L 675.56 419.22 L 676.23 419.22 L 676.23 418.54 L 705.35 388.74 L 705.35 386.71 L 700.61 377.23 L 700.61 373.84 L 699.94 373.16 L 699.94 371.13 L 699.26 370.46 L 699.26 358.26 L 700.61 355.56 L 700.61 352.17 L 701.97 350.14 L 701.97 348.78 L 703.32 346.75 L 703.32 345.40 L 704.68 344.04 L 706.03 340.66 L 708.06 338.62 L 709.42 335.92 L 708.74 334.56 L 707.39 333.88 L 707.39 333.21 L 700.61 325.76 L 700.61 325.08 L 696.55 321.02 L 696.55 320.34 L 693.84 317.63 L 693.84 316.95 L 692.49 316.28 L 692.49 315.60 L 689.10 312.21 L 689.10 311.53 L 685.71 308.15 L 685.71 307.47 L 681.65 303.41 L 681.65 302.73 L 678.94 300.02 L 678.94 299.34 L 677.59 298.67 L 677.59 297.99 L 674.88 295.28 L 674.88 294.60 L 666.75 285.80 L 666.75 285.12 L 664.04 282.41 L 664.04 281.74 L 652.53 268.87 L 651.85 269.54 L 648.47 269.54 L 647.79 270.22 L 645.08 270.22 L 644.40 270.90 L 636.95 270.90 L 636.28 270.22 L 634.24 270.22 L 633.57 269.54 L 626.79 268.87 L 626.79 269.54 L 622.73 273.61 L 622.73 274.29 L 620.02 276.99 L 620.02 277.67 L 617.31 280.38 L 617.31 281.06 L 615.96 281.74 L 615.96 282.41 L 613.25 285.12 L 613.25 285.80 L 610.54 288.51 L 610.54 289.19 L 607.83 291.89 L 607.83 292.57 L 596.99 304.76 L 596.99 305.44 L 594.29 308.15 L 594.29 308.83 L 591.58 311.53 L 591.58 312.21 L 588.87 314.92 L 588.87 315.60 L 584.80 319.66 L 584.80 320.34 L 582.10 323.05 L 582.10 323.72 L 578.03 327.79 L 578.03 328.47 L 572.61 334.56 L 571.94 337.27 L 573.97 339.30 L 573.97 339.98 L 576.68 343.37 L 579.39 348.78 L 579.39 350.14 L 580.74 352.85 L 580.74 355.56 L 581.42 356.23 L 581.42 358.26 L 582.10 358.94 L 582.10 369.78 L 581.42 370.46 L 580.74 375.87 L 580.06 376.55 L 579.39 379.94 L 576.68 385.35 L 575.32 386.71 L 572.61 391.45 L 567.20 396.87 L 564.49 398.22 L 562.46 400.25 L 560.42 400.93 L 559.07 402.29 L 557.71 402.29 L 556.36 403.64 L 555.01 403.64 L 552.97 404.99 L 550.26 404.99 L 548.23 406.35 L 541.46 406.35 L 540.78 407.03 L 538.07 407.03 L 537.40 406.35 L 531.30 406.35 L 528.59 404.99 L 525.88 404.99 L 523.85 403.64 L 522.50 403.64 L 517.08 400.93 L 512.34 396.87 L 511.66 396.87 L 504.89 389.42 L 504.89 388.74 L 502.18 385.35 L 500.15 381.29 L 500.15 379.94 L 498.79 377.90 L 498.79 375.20 L 497.44 372.49 L 497.44 357.59 L 498.79 354.88 L 498.79 352.85 L 500.15 350.81 L 500.15 348.78 L 501.50 347.43 L 501.50 346.07 L 502.86 344.72 L 503.53 342.69 L 505.57 340.66 L 505.57 339.98 L 514.37 331.17 L 515.05 331.17 L 518.43 328.47 L 523.85 325.76 L 525.88 325.76 L 527.92 324.40 L 530.62 324.40 L 531.30 323.72 L 533.33 323.72 L 534.01 323.05 L 546.88 323.05 L 547.56 323.72 L 549.59 323.72 L 550.26 324.40 L 555.01 325.08 L 557.04 323.05 L 557.04 322.37 L 558.39 321.69 L 558.39 321.02 L 560.42 318.98 L 560.42 318.31 L 563.81 314.92 L 563.81 314.24 L 566.52 311.53 L 566.52 310.86 L 570.58 306.79 L 570.58 306.12 L 573.29 303.41 L 573.29 302.73 L 577.35 298.67 L 577.35 297.99 L 580.06 295.28 L 580.06 294.60 L 584.13 290.54 L 584.13 289.86 L 586.84 287.15 L 586.84 286.48 L 590.90 282.41 L 590.90 281.74 L 593.61 279.03 L 593.61 278.35 L 596.32 275.64 L 596.32 274.96 L 597.67 274.29 L 597.67 273.61 L 603.09 267.51 L 603.09 266.84 L 605.80 264.13 L 605.80 263.45 L 609.86 259.39 L 610.54 256.68 L 605.12 249.90 L 604.44 247.87 L 603.09 246.52 L 603.09 245.16 L 600.38 239.75 L 600.38 236.36 L 599.70 235.68 L 599.70 233.65 L 599.03 232.97 L 599.03 222.81 L 599.70 222.14 L 599.70 220.11 L 600.38 219.43 L 600.38 216.72 L 601.06 216.04 L 601.74 212.66 L 603.09 210.62 L 603.09 209.27 L 604.44 207.92 L 605.12 205.88 L 606.48 204.53 L 607.83 201.82 L 615.28 194.37 L 615.96 194.37 L 619.34 191.66 L 624.76 188.95 L 626.12 188.95 Z"/>
</g>
</svg>